<svg xmlns="http://www.w3.org/2000/svg" version="1.1" xmlns:xlink="http://www.w3.org/1999/xlink" xmlns:svgjs="http://svgjs.com/svgjs" width="150" height="114"><svg width="150" height="114" viewBox="0 0 150 114" fill="none" xmlns="http://www.w3.org/2000/svg">
<rect y="1" width="149" height="111" fill="#F8C768"></rect>
<path d="M4.267 112.507C1.67567 112.507 0.380005 111.662 0.380005 109.972C0.380005 109.296 0.605338 108.789 1.056 108.451C1.61934 108.113 2.29534 107.831 3.08401 107.606C3.87267 107.381 4.49234 107.155 4.94301 106.93C7.75967 105.803 10.0693 104.113 11.872 101.86C13.7873 99.6067 14.9703 96.8463 15.421 93.579C16.3223 87.157 17.3927 76.341 18.632 61.131C19.984 45.8083 20.829 36.288 21.167 32.57L21.843 24.796C21.9557 24.12 22.012 22.2046 22.012 19.05C22.012 15.1066 20.5473 12.3463 17.618 10.769C14.4633 9.07898 11.534 7.89598 8.83 7.21998C5.788 6.43131 4.267 5.19198 4.267 3.50198C4.267 1.69931 5.73167 0.797974 8.66101 0.797974L21.167 1.13598C34.349 1.47398 41.3907 1.64297 42.292 1.64297C43.0807 1.64297 43.8693 1.98098 44.658 2.65698C45.5593 3.33298 46.1227 4.00898 46.348 4.68497C48.2633 9.98031 49.8407 14.0926 51.08 17.022L75.416 74.313C75.6413 74.7636 75.8667 74.989 76.092 74.989C76.43 74.989 76.6553 74.7636 76.768 74.313L98.907 21.078C100.484 12.628 101.667 7.21998 102.456 4.85398C102.907 3.38931 103.864 2.65698 105.329 2.65698H112.934C116.314 2.54431 119.3 2.37531 121.891 2.14998C124.482 1.92465 126.623 1.75564 128.313 1.64297C134.172 1.07964 138.566 0.797974 141.495 0.797974C144.424 0.797974 145.889 1.69931 145.889 3.50198C145.889 4.40331 145.551 5.07931 144.875 5.52997C144.312 5.98064 143.354 6.43131 142.002 6.88198C141.213 7.10731 140.481 7.38898 139.805 7.72697C139.242 8.06498 138.791 8.29031 138.453 8.40298C134.848 10.093 132.313 11.952 130.848 13.98C129.496 15.8953 128.933 18.881 129.158 22.937C130.059 43.4423 131.299 65.2996 132.876 88.509L133.383 95.438C133.834 100.508 137.89 104.113 145.551 106.254C146.79 106.705 147.692 107.155 148.255 107.606C148.931 108.057 149.269 108.789 149.269 109.803C149.269 110.592 148.931 111.211 148.255 111.662C147.692 112.113 146.959 112.338 146.058 112.338L131.862 112L118.68 111.662C116.652 111.662 112.596 111.775 106.512 112C102.005 112.338 97.6113 112.507 93.33 112.507C92.316 112.507 91.471 112.282 90.795 111.831C90.119 111.38 89.781 110.761 89.781 109.972C89.781 108.057 91.0203 106.817 93.499 106.254C97.893 105.24 100.879 104.057 102.456 102.705C104.033 101.24 104.766 98.8743 104.653 95.607C104.202 88.171 103.752 76.2283 103.301 59.779C103.188 53.2443 102.907 44.9633 102.456 34.936C102.456 34.3726 102.287 34.091 101.949 34.091C101.611 34.091 101.273 34.4853 100.935 35.274L70.177 111.493C69.6137 112.958 68.7687 113.69 67.642 113.69C66.5153 113.69 65.614 113.07 64.938 111.831C62.4593 106.31 60.0933 101.297 57.84 96.79C55.6993 92.1706 53.784 88.002 52.094 84.284C42.0667 63.328 34.7997 47.273 30.293 36.119C29.955 35.3303 29.5043 34.936 28.941 34.936C28.0397 34.936 27.4763 35.8373 27.251 37.64C26.913 43.4986 26.744 50.484 26.744 58.596L26.913 78.2C27.0257 82.1433 27.082 87.5513 27.082 94.424C27.082 97.5786 28.096 100.057 30.124 101.86C32.152 103.663 35.4193 105.127 39.926 106.254C42.968 107.043 44.489 108.226 44.489 109.803C44.489 110.592 44.0383 111.211 43.137 111.662C42.3483 112.113 41.447 112.338 40.433 112.338C37.053 112.338 33.673 112.225 30.293 112L23.026 111.831C19.7587 111.831 16.097 111.887 12.041 112C8.09767 112.225 5.50634 112.394 4.267 112.507Z" fill="black"></path>
</svg><style>@media (prefers-color-scheme: light) { :root { filter: none; } }
</style></svg>