<svg id="Layer_1" data-name="Layer 1" xmlns="http://www.w3.org/2000/svg" viewBox="0 0 432.5 366.4"><path d="M26.4,300.56a3.69,3.69,0,0,1-1.8-.35,1.15,1.15,0,0,1-.6-1,1.08,1.08,0,0,1,.85-1.15c.57-.17,1.22-.39,1.95-.65a9.61,9.61,0,0,0,4.05-2.8,9.4,9.4,0,0,0,2.15-5.1q.6-4.6,1.25-11.35t1.35-14.45q.7-7.71,1.2-15.2a9,9,0,0,0,.1-1.5v-1.9a6.15,6.15,0,0,0-.55-2.85,4.26,4.26,0,0,0-1.85-1.75,13.06,13.06,0,0,0-2.6-1.35,22.45,22.45,0,0,0-3-1,5.71,5.71,0,0,1-1.9-.8,1.54,1.54,0,0,1-.7-1.3,1.17,1.17,0,0,1,.8-1.2,5.41,5.41,0,0,1,1.9-.3c1,0,2.23,0,3.7.1s3.08.11,4.85.15,3.57.08,5.4.15,3.52.1,5,.1a2.67,2.67,0,0,1,2.4,1.8c.47,1.26.9,2.48,1.3,3.65s.83,2.38,1.3,3.65l14.7,35.1a.76.76,0,0,0,.55.45c.23,0,.42-.12.55-.45l14.3-33.2q.7-3.51,1.15-5.7c.3-1.47.58-2.64.85-3.5a1.59,1.59,0,0,1,1.6-1.3H91c2.8-.14,5.72-.35,8.75-.65s5.42-.45,7.15-.45a4,4,0,0,1,1.75.35,1.18,1.18,0,0,1,.75,1.15,1.42,1.42,0,0,1-.65,1.3,7.17,7.17,0,0,1-1.65.7,13.67,13.67,0,0,0-1.4.55c-.53.23-1,.45-1.4.65a10.43,10.43,0,0,0-3.85,2.75q-1.24,1.54-1,5,.19,7.2.5,12.6t.55,10c.17,3.06.37,6.25.6,9.55s.48,7.15.75,11.55a5.62,5.62,0,0,0,2.15,4.15,13.59,13.59,0,0,0,5.15,2.35,8,8,0,0,1,1.7.7,1.37,1.37,0,0,1,.7,1.3,1.27,1.27,0,0,1-.6,1.1,2.7,2.7,0,0,1-1.5.4c-1.47,0-3.15-.05-5.05-.15s-3.77-.19-5.6-.25-3.42-.1-4.75-.1-2.82,0-4.45.1-3.28.15-5,.25-3.27.15-4.8.15a3.58,3.58,0,0,1-1.6-.35,1.13,1.13,0,0,1-.7-1,1.61,1.61,0,0,1,.7-1.4,4.21,4.21,0,0,1,1.7-.7q3.7-.71,5.1-2.05c.93-.9,1.37-2.39,1.3-4.45q-.3-6.21-.5-12.35t-.35-12.1q-.15-6-.45-11.55c0-.47-.12-.69-.35-.65s-.45.28-.65.75l-19.1,45.4q-.5,1.4-1.5,1.2a1.89,1.89,0,0,1-1.4-1q-4.91-11.61-10.25-22.9T41.9,255c-.2-.6-.52-.82-.95-.65s-.68.61-.75,1.35q-.3,5-.5,11t-.2,12v11.25a6.08,6.08,0,0,0,1.8,4.55,12,12,0,0,0,5.7,2.65,7.36,7.36,0,0,1,1.9.65,1.44,1.44,0,0,1,.9,1.35,1.24,1.24,0,0,1-.8,1.1,3.83,3.83,0,0,1-1.7.4q-2.7,0-4.2-.15c-1-.1-1.9-.17-2.7-.2s-1.9,0-3.3,0-3,0-4.5.1-2.87.13-4,.2S26.73,300.56,26.4,300.56Z" transform="translate(-24 -34.31)"/><path d="M115.9,300.76a4.42,4.42,0,0,1-1.85-.35,1.27,1.27,0,0,1-.75-1.25,1.64,1.64,0,0,1,.65-1.45,5.63,5.63,0,0,1,1.75-.75,14.32,14.32,0,0,0,5-2.5,11,11,0,0,0,3.25-4.2q2.5-5.61,4.7-11.05t4.3-10.8q2.1-5.36,4.2-10.9t4.2-11.25a52.94,52.94,0,0,0,1.9-5.95,9,9,0,0,1,.6-2.15c1.2-.34,2.33-.64,3.4-.9a30.89,30.89,0,0,0,3.4-1.1,10.21,10.21,0,0,0,3.05-1.8c.83-.74,1.45-1.3,1.85-1.7a1.62,1.62,0,0,1,.8-.35c.27,0,.53.18.8.65s.38.81.55,1.25a12.53,12.53,0,0,1,.45,1.45q2.1,6.69,4.3,13.65T167,263.16l4.45,13.65q2.19,6.75,4.3,13.15a8.82,8.82,0,0,0,1.85,3.4,9.57,9.57,0,0,0,2.85,2.2A22.71,22.71,0,0,0,184,297a5.85,5.85,0,0,1,1.75.75,1.54,1.54,0,0,1,.65,1.35,1.27,1.27,0,0,1-.6,1.1,2.53,2.53,0,0,1-1.4.4c-1.34,0-3-.05-5-.15s-3.95-.19-5.95-.25-3.77-.1-5.3-.1c-1.27,0-2.82,0-4.65.1l-5.55.2c-1.87.06-3.47.1-4.8.1a3.25,3.25,0,0,1-1.55-.35,1.13,1.13,0,0,1-.65-1.05,1.61,1.61,0,0,1,.7-1.4,4.21,4.21,0,0,1,1.7-.7,14.19,14.19,0,0,0,5.4-2.1,3.51,3.51,0,0,0,1.1-3.9c-.27-1.27-.6-2.6-1-4s-.79-2.82-1.15-4.25-.75-2.82-1.15-4.15a3.42,3.42,0,0,0-.5-1.2,1.43,1.43,0,0,0-1.2-.4H137.2a1.46,1.46,0,0,0-1.1.4,2.54,2.54,0,0,0-.6,1.3c-.27.93-.57,1.86-.9,2.8s-.65,1.86-.95,2.8-.59,1.86-.85,2.8-.54,1.83-.8,2.7q-.7,3,.6,4.6t5.6,2.6q2.4.5,2.4,2.1a1.17,1.17,0,0,1-.55,1.05,3.4,3.4,0,0,1-1.75.35q-2.91,0-5.4-.15c-1.67-.1-3.5-.15-5.5-.15a51.66,51.66,0,0,0-5.7.3A52.73,52.73,0,0,1,115.9,300.76Zm24.1-29.2h13c1,0,1.5-.24,1.5-.7a2.27,2.27,0,0,0-.05-.5c0-.14-.09-.3-.15-.5l-6.7-22.6c-.2-.74-.4-1.1-.6-1.1s-.37.36-.7,1.1l-7.9,22.6a1.66,1.66,0,0,0-.2.8.72.72,0,0,0,.55.7A3.68,3.68,0,0,0,140,271.56Z" transform="translate(-24 -34.31)"/><path d="M221.4,301.66a38.87,38.87,0,0,1-13.55-2.35,34.12,34.12,0,0,1-11.2-6.75,31.13,31.13,0,0,1-7.55-10.4,32.07,32.07,0,0,1-2.7-13.3,33.65,33.65,0,0,1,2.65-13.2,34.22,34.22,0,0,1,7.6-11.2,36,36,0,0,1,11.95-7.75,40.71,40.71,0,0,1,15.5-2.85,45.45,45.45,0,0,1,4.85.3c1.83.2,3.71.46,5.65.8s3.75.71,5.45,1.15a27,27,0,0,1,4.15,1.35,3.23,3.23,0,0,1,1.4.85,2.65,2.65,0,0,1,.6,1.55q.5,3.49.85,6.6a48.48,48.48,0,0,1,.35,5.2,2.2,2.2,0,0,1-.45,1.5,1.61,1.61,0,0,1-1.25.5,2.26,2.26,0,0,1-1.75-.6,5.28,5.28,0,0,1-.95-1.5c-.6-1.27-1.29-2.59-2.05-3.95a19.25,19.25,0,0,0-2.75-3.75,18.43,18.43,0,0,0-2.85-2.3,14.31,14.31,0,0,0-4-1.8,20.83,20.83,0,0,0-5.8-.7,20,20,0,0,0-16.65,8.25,27.65,27.65,0,0,0-4.3,8.7,35.47,35.47,0,0,0-1.45,10.25,53.6,53.6,0,0,0,1.3,12.25,31.21,31.21,0,0,0,3.8,9.55,18,18,0,0,0,6.2,6.15,16.81,16.81,0,0,0,8.6,2.15,8.84,8.84,0,0,0,4.25-.9,30.86,30.86,0,0,0,2.65-1.6,5.94,5.94,0,0,0,1.65-2.55,11.4,11.4,0,0,0,.65-3.95c.06-.6.1-1.44.1-2.5s0-2.14,0-3.2.05-1.9.05-2.5a4.7,4.7,0,0,0-.45-2.05,3,3,0,0,0-1.75-1.45,8.88,8.88,0,0,0-2-1,18.48,18.48,0,0,0-2.3-.65l-2-.45a3.37,3.37,0,0,1-1.6-.7,1.79,1.79,0,0,1-.8-1.5,1.21,1.21,0,0,1,.7-1.1,2.74,2.74,0,0,1,1.4-.4c1.53,0,3.21,0,5.05.1s3.65.15,5.45.25,3.4.15,4.8.15q2.89,0,6.15-.2c2.16-.14,4.25-.2,6.25-.2a2,2,0,0,1,1.2.35,1.3,1.3,0,0,1,.5,1.15,1.8,1.8,0,0,1-.55,1.45,3.53,3.53,0,0,1-1.45.65,7.57,7.57,0,0,0-3.8,1.8,6.25,6.25,0,0,0-1.4,3.1c-.27,1.46-.45,2.75-.55,3.85S245,284.62,245,286v3.2a1.6,1.6,0,0,0,.4,1,11.43,11.43,0,0,0,.9,1,9.06,9.06,0,0,1,.7,1,2.09,2.09,0,0,1,.3,1.1,2.47,2.47,0,0,1-.4,1.25,2.13,2.13,0,0,1-1.5.85,10.65,10.65,0,0,0-2.8,1.05c-1.34.63-3,1.36-5,2.2a42.44,42.44,0,0,1-16.2,3.05Z" transform="translate(-24 -34.31)"/><path d="M323.4,302.16a10.7,10.7,0,0,1-4.2-1.55,20.37,20.37,0,0,1-6-5.45q-2.4-2.51-5-5.4t-5.5-6q-2.91-3.11-5.85-6.3L291,271.11q-2.91-3.15-5.8-6.25t-5.5-6c-1.74-1.94-3.4-3.74-5-5.4a2.25,2.25,0,0,0-.65-.75,1.32,1.32,0,0,0-.65-.35c-.27,0-.45.23-.55.7a5.76,5.76,0,0,0-.15,1.2q-.1,4.59,0,10.8t.25,12.55q.15,6.34.15,11.55a6.53,6.53,0,0,0,2,5,13.6,13.6,0,0,0,5.9,2.85,6.68,6.68,0,0,1,1.95.65,1.46,1.46,0,0,1,.85,1.35,1.24,1.24,0,0,1-.8,1.1,3.86,3.86,0,0,1-1.7.4c-1.8,0-3.27-.05-4.4-.15s-2.19-.17-3.15-.2-2.15,0-3.55,0-2.85,0-4.15.1-2.4.13-3.3.2-1.52.1-1.85.1a4.14,4.14,0,0,1-1.55-.35c-.57-.24-.85-.59-.85-1a1.34,1.34,0,0,1,.8-1.3,19.57,19.57,0,0,1,1.8-.8,7,7,0,0,0,3.65-3,11.65,11.65,0,0,0,1.45-5.2c.26-2.47.55-5.74.85-9.8s.58-8.65.85-13.75.4-10.39.4-15.85c0-3.47-.89-6-2.65-7.5a20.46,20.46,0,0,0-6.45-3.7,8.06,8.06,0,0,1-1.8-.75,1.64,1.64,0,0,1-1-1.45,1.24,1.24,0,0,1,.8-1.25,4.32,4.32,0,0,1,1.8-.35c1.2,0,2.55,0,4.05.1s3.08.11,4.75.15,3.4.08,5.2.15,3.6.1,5.4.1a2.24,2.24,0,0,1,1.25.3,3.72,3.72,0,0,1,.85.8l4.75,5.4q2.55,2.89,5.35,6t5.7,6.4q2.9,3.24,5.75,6.55t5.6,6.4q2.75,3.09,5.35,6t4.8,5.4a8.8,8.8,0,0,0,.75.85,1.26,1.26,0,0,0,.85.45c.53,0,.8-.5.8-1.5,0-2.07,0-4.47.05-7.2s.05-5.64.05-8.7,0-6.1-.05-9.1-.12-5.77-.25-8.3a4.84,4.84,0,0,0-2.05-4,17.26,17.26,0,0,0-5.35-2.25,5.48,5.48,0,0,1-1.9-.7,1.56,1.56,0,0,1-.8-1.4,1.11,1.11,0,0,1,.8-1.05,4.08,4.08,0,0,1,1.7-.35c1.53,0,2.83,0,3.9,0s2,.05,2.9.05h2.9c1.33,0,2.46,0,3.4-.05l3.05-.15c1.1-.07,2.51-.1,4.25-.1a3.53,3.53,0,0,1,1.85.4,1.23,1.23,0,0,1,.65,1.1c0,1-.87,1.66-2.6,2a10.92,10.92,0,0,0-5,2,5.51,5.51,0,0,0-1.6,4.2c0,2.4,0,5-.05,7.7s-.12,5.53-.25,8.4-.25,5.71-.35,8.55-.19,5.55-.25,8.15-.1,5-.1,7.2a47,47,0,0,0,.3,5.05c.2,1.83.38,3.5.55,5s.25,2.55.25,3.15a6.07,6.07,0,0,1-.75,3.5A2.45,2.45,0,0,1,323.4,302.16Z" transform="translate(-24 -34.31)"/><path d="M373.6,301.66q-9.41,0-15.7-3.35a22.1,22.1,0,0,1-9.45-9.35,29.71,29.71,0,0,1-3.15-14v-28.5a10.23,10.23,0,0,0-1.3-5.1,5.76,5.76,0,0,0-3.8-2.9c-1.87-.54-2.8-1.27-2.8-2.2a1.21,1.21,0,0,1,.75-1.1,3.84,3.84,0,0,1,1.85-.4q3.19,0,6.6.25c2.26.16,4.4.25,6.4.25s4.11-.07,6.75-.2,4.88-.2,6.75-.2a4.54,4.54,0,0,1,1.95.35,1.18,1.18,0,0,1,.75,1.15c0,.73-.5,1.26-1.5,1.6a27.28,27.28,0,0,0-3.2,1.3,5.46,5.46,0,0,0-2.6,2.45,10.26,10.26,0,0,0-1.1,5.25v26.2a25,25,0,0,0,2.2,11.2,14.85,14.85,0,0,0,5.85,6.5A16,16,0,0,0,377,293q9.09,0,13.55-5.4t4.45-16.5c0-1.74,0-3.69.05-5.85s.05-4.4.05-6.7,0-4.49-.1-6.55a39.23,39.23,0,0,0-.65-7,9.67,9.67,0,0,0-1.65-3.9,8.22,8.22,0,0,0-3-2.3,14.39,14.39,0,0,0-2.55-1c-1-.3-1.45-.75-1.45-1.35a1.09,1.09,0,0,1,.8-1.1,6.42,6.42,0,0,1,2.2-.3c2.4,0,4.21,0,5.45.1s2.61.1,4.15.1c1.26,0,2.31,0,3.15-.1l2.6-.2c.9-.07,2-.1,3.25-.1a4.94,4.94,0,0,1,1.9.3,1.18,1.18,0,0,1,.7,1.2q0,1.29-2.7,2.1a7.5,7.5,0,0,0-4.65,3,12,12,0,0,0-1.55,5.75q-.3,7.59-.4,14t-.1,12.95a29.42,29.42,0,0,1-3.65,14.35,25.74,25.74,0,0,1-9.65,9.75A26.88,26.88,0,0,1,373.6,301.66Z" transform="translate(-24 -34.31)"/><path d="M432.7,301.66a34.36,34.36,0,0,1-8.3-1,25.93,25.93,0,0,1-7.5-3.2c-.4-.34-.8-.7-1.2-1.1a4.23,4.23,0,0,1-.9-1.3,25.54,25.54,0,0,1-1.35-6.6,66.86,66.86,0,0,1-.25-7.9,1,1,0,0,1,.6-1,3.07,3.07,0,0,1,1.4-.3,2.52,2.52,0,0,1,1.35.25,3,3,0,0,1,.75.95,29.2,29.2,0,0,0,6.55,12.1,13.58,13.58,0,0,0,10.15,4.6,8.94,8.94,0,0,0,5.25-1.45,9.8,9.8,0,0,0,3.15-3.7,10.32,10.32,0,0,0,1.1-4.55,10.78,10.78,0,0,0-1.25-5.4,12.92,12.92,0,0,0-3.75-4,59.37,59.37,0,0,0-6.4-3.9q-4.2-2.4-8.1-5.05a23.11,23.11,0,0,1-6.4-6.45,16.92,16.92,0,0,1-2.5-9.5,17.1,17.1,0,0,1,3-10.2,20.09,20.09,0,0,1,8.35-6.7,28.52,28.52,0,0,1,11.9-2.4,31.65,31.65,0,0,1,7.25.8,42.46,42.46,0,0,1,5.55,1.6,4.93,4.93,0,0,1,1.75,1.1,5.29,5.29,0,0,1,.95,2.1,47.25,47.25,0,0,1,.85,5.1,58,58,0,0,1,.35,6.6c0,.86-.6,1.3-1.8,1.3a3.15,3.15,0,0,1-1.65-.45,2,2,0,0,1-.95-1.15q-1.71-6-5-9.1a11.37,11.37,0,0,0-8.1-3.1,11.74,11.74,0,0,0-5.1,1,6.65,6.65,0,0,0-3.15,3,10.67,10.67,0,0,0-1.05,5,7,7,0,0,0,1.65,4.45,21.75,21.75,0,0,0,4.75,4.15q3.09,2.1,7.1,4.5a46.33,46.33,0,0,1,8.6,6.3,20,20,0,0,1,4.65,6.55,20.5,20.5,0,0,1,1.45,7.95,20.27,20.27,0,0,1-2.95,11.3,17.46,17.46,0,0,1-8.3,6.65A33.61,33.61,0,0,1,432.7,301.66Z" transform="translate(-24 -34.31)"/><path d="M323.8,102.11a29.9,29.9,0,0,1-5.3-.45,14.27,14.27,0,0,1-4.6-1.65,14.91,14.91,0,0,1-3.9-3.3L305.4,91q-2.2-2.74-4.65-6.35t-5.95-9.2a10.25,10.25,0,0,0-4.3-3.9A18.21,18.21,0,0,0,286.15,70a28.22,28.22,0,0,0-3.55-.55,1.07,1.07,0,0,0-1.15.5,3,3,0,0,0-.35,1.5V89a10.06,10.06,0,0,0,1.5,5.55,7.39,7.39,0,0,0,5.2,3,10,10,0,0,1,2.5.7,1.24,1.24,0,0,1,.8,1.1c0,.4-.27.68-.8.85a7.08,7.08,0,0,1-2.1.25,33.17,33.17,0,0,1-4.15-.2l-2.6-.35a24.63,24.63,0,0,0-3.05-.15c-1.67,0-3.15,0-4.45.15s-2.6.22-3.9.35-2.85.2-4.65.2a7.08,7.08,0,0,1-2.1-.25c-.53-.17-.8-.45-.8-.85q0-1.2,3.3-1.8a11.13,11.13,0,0,0,5.55-2.3q1.75-1.59,1.75-5.3V47.41a35.5,35.5,0,0,0-.35-5.75,3.89,3.89,0,0,0-1.6-2.75,10,10,0,0,0-4.15-1.1,5.6,5.6,0,0,1-2.5-.75,1.53,1.53,0,0,1-.8-1.25c0-.4.27-.68.8-.85a7.43,7.43,0,0,1,2.1-.25h4c.9,0,1.75,0,2.55,0s1.87.05,3.2.05,2.4-.05,3.4-.15,2.12-.18,3.35-.25,2.82-.1,4.75-.1q11,0,16.75,4.1t5.75,12.3a15.74,15.74,0,0,1-1.8,7.75,18.37,18.37,0,0,1-4.5,5.45,29.46,29.46,0,0,1-5.5,3.6c-.27.07-.38.22-.35.45a2.28,2.28,0,0,0,.35.85q3.11,4.71,5.95,8.9a89.88,89.88,0,0,0,14.35,16.5,11,11,0,0,0,5.3,2.8,33.75,33.75,0,0,0,6.2.5c1,0,1.5.37,1.5,1.1a2.4,2.4,0,0,1-1.5,2.25,10.72,10.72,0,0,1-3.4,1A24.62,24.62,0,0,1,323.8,102.11Zm-37.4-35a14.41,14.41,0,0,0,13.15-7.6,14.84,14.84,0,0,0,1.85-7.2,25.36,25.36,0,0,0-1-7.5,9.86,9.86,0,0,0-4.2-5.45c-2.1-1.36-5.25-2-9.45-2-2.13,0-3.53.69-4.2,2s-1.07,3.79-1.2,7.25q-.1,2.51-.15,6.75c0,2.84,0,6.25,0,10.25,0,1.67.47,2.67,1.4,3A11.82,11.82,0,0,0,286.4,67.11Z" transform="translate(-24 -34.31)"/><path d="M263.85,200.51a5.41,5.41,0,0,1-2.1-.35c-.53-.23-.8-.55-.8-.95a1.56,1.56,0,0,1,.85-1.25,11.07,11.07,0,0,1,2.45-1.05,16,16,0,0,0,4.8-2.4,12.36,12.36,0,0,0,3.8-5.3q2.81-6.39,5.15-12t4.45-11q2.1-5.4,4.35-11.25t4.75-12.75c.33-.93.64-1.86.9-2.8a14,14,0,0,0,.5-3l1.8-.6a7.57,7.57,0,0,0,1.8-.9,3.1,3.1,0,0,0,1.25-1.8,5.86,5.86,0,0,1,.65-1.6.37.37,0,0,1,.25-.1c.1,0,.18.07.25.2a5.23,5.23,0,0,1,.35,1c.1.4.22.8.35,1.2q2.4,7.6,5,15.5t5.05,15.25q2.44,7.35,4.5,13.2t3.25,9.45a20.51,20.51,0,0,0,3,6,9.34,9.34,0,0,0,3.35,2.8,16.44,16.44,0,0,0,3.75,1.2,5.5,5.5,0,0,1,2.5.95,1.83,1.83,0,0,1,.8,1.35c0,.4-.27.67-.8.8a9.08,9.08,0,0,1-2.1.2c-.93,0-2.2,0-3.8-.15l-5.1-.3c-1.8-.1-3.47-.15-5-.15h-3.9c-1.33,0-2.57,0-3.7.05s-2.1,0-2.9,0a6.15,6.15,0,0,1-2.1-.3c-.53-.2-.8-.5-.8-.9s.34-.86,1-1.2a8.06,8.06,0,0,1,2.3-.7,9.47,9.47,0,0,0,4.7-1.7,3.6,3.6,0,0,0,1.4-2.8,21.54,21.54,0,0,0-.65-4.35q-.64-2.85-1.55-6.1c-.6-2.16-1.16-4.08-1.7-5.75a1.15,1.15,0,0,0-.75-1,8.51,8.51,0,0,0-1.95-.15h-18.9a1.45,1.45,0,0,0-.85.35,3.38,3.38,0,0,0-.85,1.45c-.2.67-.53,1.72-1,3.15s-.93,2.95-1.4,4.55-.87,3-1.2,4.3a13.89,13.89,0,0,0-.5,2.4,4.59,4.59,0,0,0,1.7,3.65,9.86,9.86,0,0,0,4.1,2c2.2.6,3.3,1.27,3.3,2,0,.4-.27.69-.8.85a7.08,7.08,0,0,1-2.1.25c-.87,0-2.13,0-3.8-.1s-3.43-.1-5.3-.1q-3.3,0-6.4.3C267.38,200.41,265.52,200.51,263.85,200.51Zm23.4-28.7h15.5c.94,0,1.4-.16,1.4-.5a2.68,2.68,0,0,0,0-.45,3.85,3.85,0,0,0-.15-.55l-7.8-24.4q-.6-1.8-.9-1.8c-.13,0-.4.57-.8,1.7l-9.1,24.5a3.49,3.49,0,0,0-.2.8.56.56,0,0,0,.55.6A8.85,8.85,0,0,0,287.25,171.81Z" transform="translate(-24 -34.31)"/><path d="M323,301.71a9.87,9.87,0,0,1-3.55-1.5,16.49,16.49,0,0,1-5-4.8l-2.45-3c-1.36-1.66-3.1-3.75-5.2-6.25L299.85,278l-7.4-8.8q-3.7-4.4-6.9-8.15c-2.13-2.5-3.92-4.6-5.35-6.3l-2.65-3.15a6.62,6.62,0,0,0-1.2-1.25,1.63,1.63,0,0,0-.9-.35c-.33,0-.57.25-.7.75a5.45,5.45,0,0,0-.2,1.35c-.07,3.27-.13,7-.2,11.3s-.13,8.67-.2,13.2-.1,8.87-.1,13a9.69,9.69,0,0,0,1.35,5q1.35,2.31,5.05,3a10,10,0,0,1,2.5.7,1.24,1.24,0,0,1,.8,1.1c0,.4-.27.68-.8.85a7.08,7.08,0,0,1-2.1.25,40,40,0,0,1-4.05-.15l-2.4-.25c-.7-.07-1.68-.1-2.95-.1s-2.13,0-2.8.1l-2.3.25a38.46,38.46,0,0,1-4,.15,7.13,7.13,0,0,1-2.1-.25c-.53-.17-.8-.45-.8-.85a1.24,1.24,0,0,1,.8-1.1,13.17,13.17,0,0,1,2.5-.8,6.72,6.72,0,0,0,4.2-2.95,12.25,12.25,0,0,0,1.6-5.25c.27-2.53.53-5.88.8-10.05s.5-8.83.7-14,.3-10.48.3-15.95q0-5.3-2.75-7.6a21.09,21.09,0,0,0-7.15-3.7l-1.75-.85c-.9-.43-1.35-.95-1.35-1.55a1.1,1.1,0,0,1,.9-1.15,6,6,0,0,1,1.4-.25l4.7.15c1.2,0,2.27.09,3.2.15s2,.12,3.1.15,2.6.05,4.4.05a1.9,1.9,0,0,1,1.4.5,9.62,9.62,0,0,1,1,1.2c.27.4,1.15,1.52,2.65,3.35s3.37,4.14,5.6,6.9,4.68,5.77,7.35,9l8,9.7,7.4,9q3.41,4.15,5.65,6.85c1.5,1.8,2.38,2.87,2.65,3.2s.65.67,1.15,1.2a2,2,0,0,0,1.35.8c.6,0,.93-.7,1-2.1,0-.93,0-2.71.05-5.35s.07-5.83.1-9.6.05-7.85.05-12.25v-13.5a5,5,0,0,0-2.1-3.6,8.54,8.54,0,0,0-3.7-1.9,18.42,18.42,0,0,1-3.1-.8c-.93-.33-1.4-.73-1.4-1.2s.47-.68,1.4-.85a16,16,0,0,1,2.7-.25H320c1.6,0,2.87,0,3.8,0s1.95-.08,3.05-.15,2.65-.1,4.65-.1a7.43,7.43,0,0,1,2.1.25c.53.17.8.45.8.85,0,.94-1.1,1.6-3.3,2q-3.71.7-4.9,1.8a5.3,5.3,0,0,0-1.4,3.6c0,.34,0,1.64-.05,3.9s-.05,5.14-.05,8.6,0,7.2,0,11.2-.05,8-.05,11.95v10.65q0,2.4.15,4.35c.1,1.3.18,2.4.25,3.3s.1,1.59.1,2c0,1.07-.22,1.75-.65,2.05A2.49,2.49,0,0,1,323,301.71Z" transform="translate(-24 -34.31)"/><path d="M295.15,400.71c-.67,0-2.15-.07-4.45-.2s-4.93-.25-7.9-.35S277,400,274.35,400c-1.33,0-2.45,0-3.35.1s-1.87.15-2.9.25-2.45.15-4.25.15a6.11,6.11,0,0,1-2.1-.3,1,1,0,0,1-.8-1,1,1,0,0,1,.8-1,24.19,24.19,0,0,1,2.5-.55q3.81-.69,5.25-2.3c1-1.06,1.45-2.8,1.45-5.2v-45q0-3.6-1.45-5.1t-5.25-2.2a11.6,11.6,0,0,1-2.5-.65A1.18,1.18,0,0,1,261,336a1.05,1.05,0,0,1,.8-1,6.11,6.11,0,0,1,2.1-.3c1.73,0,3.12,0,4.15.05l3.05.1c1,0,2.3.05,3.9.05,1.07,0,2.42,0,4.05-.1s3.33-.16,5.1-.3,3.37-.23,4.8-.3,2.48-.1,3.15-.1a54.43,54.43,0,0,1,17.4,2.45,30.91,30.91,0,0,1,11.7,6.8,27.08,27.08,0,0,1,6.65,10.1A35.08,35.08,0,0,1,330,365.81a33.91,33.91,0,0,1-2.7,13.5,35.66,35.66,0,0,1-7.5,11.15,34.59,34.59,0,0,1-11.1,7.55A33.91,33.91,0,0,1,295.15,400.71Zm-1.2-3.5a25.18,25.18,0,0,0,13.8-3.8,25.71,25.71,0,0,0,9.35-10.5,34,34,0,0,0,3.35-15.4,32.61,32.61,0,0,0-2.4-12.85,28.12,28.12,0,0,0-15.4-15.4,26.54,26.54,0,0,0-10.1-2.05c-2.87,0-5.32.09-7.35.25a8.45,8.45,0,0,0-4.65,1.55c-1.07.87-1.6,2.3-1.6,4.3v44.6q0,4,2.2,6a11.24,11.24,0,0,0,5.65,2.65A38,38,0,0,0,294,397.21Z" transform="translate(-24 -34.31)"/></svg>