<?xml version="1.0" encoding="utf-8"?>
<!-- Generator: Adobe Illustrator 22.0.1, SVG Export Plug-In . SVG Version: 6.00 Build 0)  -->
<svg version="1.1" id="Layer_2" xmlns="http://www.w3.org/2000/svg" xmlns:xlink="http://www.w3.org/1999/xlink" x="0px" y="0px"
	 viewBox="0 0 558.5 558.5" style="enable-background:new 0 0 558.5 558.5;" xml:space="preserve">
<style type="text/css">
	.st0{opacity:0.85;fill:#FCFCFC;stroke:#FFFFFF;stroke-miterlimit:10;}
	.st1{opacity:0.5;fill:#FCFCFC;stroke:#FFFFFF;stroke-miterlimit:10;}
	.st2{opacity:0.5;fill:#FFFFFF;}
	.st3{opacity:0.85;}
	.st4{fill:#FFFFFF;}
	.st5{opacity:0.5;}
</style>
<polygon class="st0" points="220.9,52.9 220.8,53 219.9,53 220,52.9 "/>
<polygon class="st0" points="472.3,505.1 471.9,505.1 458.5,492.2 458.7,492 "/>
<polygon class="st1" points="526.7,558 287,558 287,505.1 471.9,505.1 "/>
<polygon class="st0" points="472.3,505.1 471.9,505.1 458.5,492.2 458.7,492 "/>
<polygon class="st1" points="558,268.5 558,528.5 514.7,486.7 514.5,486.1 515,486.6 515,268.5 "/>
<rect x="122" y="436" transform="matrix(-1.836970e-16 1 -1 -1.836970e-16 680 393)" class="st2" width="43" height="201"/>
<polygon class="st0" points="230.3,43 220,52.9 230,43 "/>
<line class="st0" x1="230.3" y1="43" x2="230" y2="43"/>
<g class="st3">
	<polygon class="st4" points="85.6,72.2 55,43 55.2,43 65.5,52.9 65.6,53 	"/>
</g>
<g class="st3">
	<polygon class="st4" points="65.5,52.9 65.5,52.9 65.6,53 85.6,72.2 65.6,53 	"/>
</g>
<g class="st3">
	<polygon class="st4" points="65.5,52.9 55.2,43 55.2,43 65.5,52.9 	"/>
</g>
<g class="st3">
	<polygon class="st4" points="55.2,43 55.2,43 65.5,52.9 	"/>
</g>
<g class="st3">
	<polygon class="st4" points="142.6,127 142.5,127.1 85.6,72.2 	"/>
</g>
<g class="st5">
	<polygon class="st4" points="275,0 230.3,43 55,43 10.5,0 	"/>
</g>
<g class="st3">
	<polygon class="st4" points="286,43 287,266.7 288.8,268.5 488.4,460.9 514.5,486.1 514.7,486.7 558,528.5 558,558 526.7,558 
		471.9,505.1 472.3,505.1 458.7,492 287,326.5 287,558 244,558 244,89.5 142.5,186.8 43,90.9 43,558 0,558 0,0 10.5,0 55,43 
		85.6,72.2 142.5,127.1 142.6,127 142.7,127.2 219.9,53 220,52.9 220.1,52.8 230.3,43 275,0 558,0 558,268.5 515,268.5 514,43 	"/>
</g>
</svg>
